<?xml version="1.0" encoding="UTF-8"?>
<svg version="1.1" xmlns="http://www.w3.org/2000/svg" width="128" height="128">
<path d="M0 0 C42.24 0 84.48 0 128 0 C128 42.24 128 84.48 128 128 C85.76 128 43.52 128 0 128 C0 85.76 0 43.52 0 0 Z " fill="#FCFDFD" transform="translate(0,0)"/>
<path d="M0 0 C12.21 0 24.42 0 37 0 C37 42.24 37 84.48 37 128 C17.2 128 -2.6 128 -23 128 C-21.02 127.505 -21.02 127.505 -19 127 C-18.773125 125.9275 -18.54625 124.855 -18.3125 123.75 C-17 120 -17 120 -14.625 118.1875 C-10.24761688 114.53968074 -8.60892863 109.38293682 -7.61328125 103.8515625 C-7.30689218 98.50560157 -9.06267707 94.32412458 -12 90 C-19.55265227 82.23755184 -29.37035818 82.49265115 -39.5 82.3125 C-40.799375 82.27833984 -42.09875 82.24417969 -43.4375 82.20898438 C-46.62491371 82.12695535 -49.81206783 82.05765545 -53 82 C-53.5625 80.0625 -53.5625 80.0625 -54 78 C-52.46330808 76.46330808 -51.01776878 76.85536615 -48.87890625 76.82421875 C-35.10838162 76.48943676 -25.47069629 75.54936807 -15.203125 65.5078125 C-6.24321175 55.30876231 -7.08702307 42.8947715 -7 30 C-4.36 30 -1.72 30 1 30 C1.495 33.96 1.495 33.96 2 38 C7.28 32.72 12.56 27.44 18 22 C15.49536742 16.99073484 12.41417366 14.09009219 8 10.6875 C5 8 5 8 0 0 Z " fill="#FDFDFD" transform="translate(91,0)"/>
<path d="M0 0 C4.80023938 1.95565308 7.86212168 5.5420934 11 9.5625 C13.104689 12.12758972 15.35227996 14.01420997 18 16 C16.60982588 19.13578312 14.98666305 21.26011864 12.55859375 23.671875 C11.89279297 24.33574219 11.22699219 24.99960937 10.54101562 25.68359375 C9.84685547 26.36550781 9.15269531 27.04742188 8.4375 27.75 C7.39045898 28.79607422 7.39045898 28.79607422 6.32226562 29.86328125 C1.14031158 35 1.14031158 35 0 35 C0 32.03 0 29.06 0 26 C-2.64 26 -5.28 26 -8 26 C-7.9685791 26.60360352 -7.9371582 27.20720703 -7.90478516 27.82910156 C-7.25314682 42.25312994 -7.22145526 52.69409592 -17.25 63.9375 C-23.05182681 69.23425707 -30.80978683 72.96604145 -38.66796875 73.31640625 C-39.56064453 73.35830078 -40.45332031 73.40019531 -41.37304688 73.44335938 C-42.30181641 73.48267578 -43.23058594 73.52199219 -44.1875 73.5625 C-45.59805664 73.62727539 -45.59805664 73.62727539 -47.03710938 73.69335938 C-49.35792854 73.79938665 -51.67885325 73.90145029 -54 74 C-54 74.99 -54 75.98 -54 77 C-53.20416504 77.0093457 -52.40833008 77.01869141 -51.58837891 77.02832031 C-47.93332349 77.08246928 -44.27948716 77.16603076 -40.625 77.25 C-39.37332031 77.26417969 -38.12164062 77.27835937 -36.83203125 77.29296875 C-28.63680133 77.50750356 -20.43341522 78.01071038 -14.06738281 83.73901367 C-9.6451443 88.5311497 -7.46869349 93.09382523 -7.6953125 99.75390625 C-8.42509679 105.13372637 -10.04150525 110.08408122 -13.9765625 113.93359375 C-18.88531799 117.65532291 -21.88734683 119.12669464 -28.1015625 119.09765625 C-29.31328125 119.09443359 -30.525 119.09121094 -31.7734375 119.08789062 C-33.04445312 119.07951172 -34.31546875 119.07113281 -35.625 119.0625 C-36.90375 119.05798828 -38.1825 119.05347656 -39.5 119.04882812 C-42.66668645 119.03701213 -45.83334896 119.01907621 -49 119 C-49 113.39 -49 107.78 -49 102 C-38.605 101.505 -38.605 101.505 -28 101 C-27.34 99.68 -26.68 98.36 -26 97 C-26.94319092 96.98018066 -27.88638184 96.96036133 -28.8581543 96.93994141 C-32.37143034 96.86165234 -35.88429264 96.77495302 -39.3972168 96.68261719 C-40.91503978 96.64443296 -42.43295001 96.60956192 -43.95092773 96.578125 C-46.13817431 96.53224372 -48.32482582 96.47428971 -50.51171875 96.4140625 C-51.82615967 96.3826416 -53.14060059 96.3512207 -54.49487305 96.31884766 C-60.74802308 95.75002311 -63.87275097 93.70047806 -68 89 C-68.33 88.01 -68.66 87.02 -69 86 C-69.66 86 -70.32 86 -71 86 C-73.46071556 80.15580054 -74.49028402 73.73530416 -72.08984375 67.71875 C-69.45833559 63.18341761 -66.52558219 60.71534931 -62 58 C-61.34 57.01 -60.68 56.02 -60 55 C-57.66503906 54.63110352 -57.66503906 54.63110352 -54.765625 54.62890625 C-53.19167969 54.60280273 -53.19167969 54.60280273 -51.5859375 54.57617188 C-49.37761657 54.56712138 -47.16927659 54.56185824 -44.9609375 54.56054688 C-36.74147028 54.44173671 -36.74147028 54.44173671 -30 50 C-25.7469392 44.39575357 -26.44024872 37.3628327 -26.3125 30.625 C-26.27833984 29.41199219 -26.24417969 28.19898437 -26.20898438 26.94921875 C-26.12677625 23.96623819 -26.05753474 20.98354158 -26 18 C-25.01 17.67 -24.02 17.34 -23 17 C-23 16.34 -23 15.68 -23 15 C-22.34 15 -21.68 15 -21 15 C-20.773125 14.401875 -20.54625 13.80375 -20.3125 13.1875 C-18.57775349 10.29625581 -17.04308064 9.4553864 -14 8 C-10.44921875 7.70703125 -10.44921875 7.70703125 -6.6875 7.8125 C-5.43324219 7.83957031 -4.17898437 7.86664062 -2.88671875 7.89453125 C-1.93410156 7.92933594 -0.98148437 7.96414062 0 8 C0 5.36 0 2.72 0 0 Z " fill="#215685" transform="translate(92,4)"/>
<path d="M0 0 C0.928125 0.8971875 0.928125 0.8971875 1.875 1.8125 C1.215 1.8125 0.555 1.8125 -0.125 1.8125 C-0.125 2.4725 -0.125 3.1325 -0.125 3.8125 C-0.785 4.1425 -1.445 4.4725 -2.125 4.8125 C-2.13958252 5.56869629 -2.15416504 6.32489258 -2.16918945 7.10400391 C-2.24392 10.54900277 -2.34049928 13.99305921 -2.4375 17.4375 C-2.46005859 18.62730469 -2.48261719 19.81710938 -2.50585938 21.04296875 C-2.84659801 32.13246237 -2.84659801 32.13246237 -6.125 36.8125 C-10.3727286 40.64581605 -12.77681457 41.92298714 -18.4296875 41.98828125 C-20.01716797 42.02405273 -20.01716797 42.02405273 -21.63671875 42.06054688 C-23.87090206 42.10336223 -26.1053362 42.13469593 -28.33984375 42.15429688 C-29.40074219 42.18201172 -30.46164063 42.20972656 -31.5546875 42.23828125 C-32.52647949 42.25286377 -33.49827148 42.26744629 -34.49951172 42.2824707 C-37.81237005 42.95126515 -38.89188881 44.35204659 -41.125 46.8125 C-42.61 47.3075 -42.61 47.3075 -44.125 47.8125 C-51.40422047 31.56424003 -51.40422047 31.56424003 -50.125 22.8125 C-50.03992188 22.14089844 -49.95484375 21.46929687 -49.8671875 20.77734375 C-48.32169063 12.50729133 -43.85033737 5.67829698 -37.0625 0.8125 C-25.82338262 -6.573713 -11.35502663 -7.94851864 0 0 Z " fill="#4390D2" transform="translate(69.125,17.1875)"/>
<path d="M0 0 C4.79642058 2.39821029 7.60178971 5.20357942 10 10 C10.94838947 15.32803075 9.99731458 19.45235029 7 24 C2.97826515 27.62937047 0.50376471 29.15423564 -4.875 29.25 C-5.73867188 29.27578125 -6.60234375 29.3015625 -7.4921875 29.328125 C-10.48225103 28.93690173 -11.83879275 28.07073811 -14 26 C-14 25.34 -14 24.68 -14 24 C-14.66 24 -15.32 24 -16 24 C-18.83050769 19.28248718 -19.98151964 15.40375096 -19 10 C-14.78597622 2.023455 -9.05776189 -1.22030568 0 0 Z " fill="#F7FBFB" transform="translate(56,30)"/>
<path d="M0 0 C1.0625 2.375 1.0625 2.375 2 5 C4.51364756 6.82619087 4.51364756 6.82619087 7 8 C6.34 8.33 5.68 8.66 5 9 C3.66074463 8.54874756 3.66074463 8.54874756 2.29443359 8.08837891 C-1.20132748 6.93348763 -4.04022037 6.68696641 -7.7109375 6.5859375 C-9.57685547 6.52792969 -9.57685547 6.52792969 -11.48046875 6.46875 C-12.76566406 6.4378125 -14.05085938 6.406875 -15.375 6.375 C-16.68339844 6.33632812 -17.99179687 6.29765625 -19.33984375 6.2578125 C-22.55975716 6.16380043 -25.7796688 6.07814179 -29 6 C-29.5625 4.0625 -29.5625 4.0625 -30 2 C-28.43074084 0.43074084 -26.81097762 0.79985419 -24.6328125 0.71875 C-23.74722656 0.68136719 -22.86164062 0.64398438 -21.94921875 0.60546875 C-21.01722656 0.57066406 -20.08523437 0.53585938 -19.125 0.5 C-17.29411697 0.43105461 -15.46337244 0.35829824 -13.6328125 0.28125 C-12.81699707 0.25095703 -12.00118164 0.22066406 -11.16064453 0.18945312 C-2.04679121 -0.60968249 -2.04679121 -0.60968249 0 0 Z " fill="#EDF5F4" transform="translate(67,76)"/>
<path d="M0 0 C0.99 0 1.98 0 3 0 C3 1.32 3 2.64 3 4 C4.98 4 6.96 4 9 4 C8 6 8 6 5.1875 7.25 C1.31462346 9.37628516 -0.05878658 11.04291111 -2 15 C-2.80297352 20.02862165 -1.88692184 24.2826954 0 29 C0.66 29 1.32 29 2 29 C2 29.66 2 30.32 2 31 C3.32 31.66 4.64 32.32 6 33 C6 33.33 6 33.66 6 34 C5.02417969 34.06058594 4.04835938 34.12117188 3.04296875 34.18359375 C1.77066406 34.26738281 0.49835937 34.35117187 -0.8125 34.4375 C-2.07707031 34.51871094 -3.34164062 34.59992187 -4.64453125 34.68359375 C-7.99181893 34.87184547 -7.99181893 34.87184547 -11 36 C-11 35.34 -11 34.68 -11 34 C-10.071875 33.319375 -10.071875 33.319375 -9.125 32.625 C-6.66259318 30.74198302 -6.07390557 29.89769347 -5 27 C-4.61979366 24.08953158 -4.4916739 21.18143171 -4.375 18.25 C-4.33632813 17.45722656 -4.29765625 16.66445313 -4.2578125 15.84765625 C-4.163892 13.89880584 -4.08087178 11.94943549 -4 10 C-3.01 10 -2.02 10 -1 10 C-0.24572703 5.02093741 -0.24572703 5.02093741 0 0 Z " fill="#4A91CB" transform="translate(40,25)"/>
<path d="M0 0 C4.45831982 -0.02891546 8.91661569 -0.04676981 13.375 -0.0625 C14.64601563 -0.07087891 15.91703125 -0.07925781 17.2265625 -0.08789062 C19.04414062 -0.09272461 19.04414062 -0.09272461 20.8984375 -0.09765625 C22.57945557 -0.10551147 22.57945557 -0.10551147 24.29443359 -0.11352539 C27 0 27 0 29 1 C28.125 4.875 28.125 4.875 27 6 C25.43827255 6.08685603 23.87270656 6.10702219 22.30859375 6.09765625 C21.36435547 6.09443359 20.42011719 6.09121094 19.44726562 6.08789062 C18.45404297 6.07951172 17.46082031 6.07113281 16.4375 6.0625 C15.44041016 6.05798828 14.44332031 6.05347656 13.41601562 6.04882812 C10.94398513 6.03700023 8.47198528 6.01906415 6 6 C6 11.61 6 17.22 6 23 C13.59 23 21.18 23 29 23 C29 23.33 29 23.66 29 24 C21.08 24 13.16 24 5 24 C4.625 15.75 4.625 15.75 4.52197266 13.17089844 C4.4863623 12.4905957 4.45075195 11.81029297 4.4140625 11.109375 C4.3826416 10.41811523 4.3512207 9.72685547 4.31884766 9.01464844 C4.03551867 6.56787099 4.03551867 6.56787099 2 3 C10.25 3.33 18.5 3.66 27 4 C27 3.34 27 2.68 27 2 C18.09 1.67 9.18 1.34 0 1 C0 0.67 0 0.34 0 0 Z " fill="#BED3DE" transform="translate(37,100)"/>
<path d="M0 0 C2.475 0.99 2.475 0.99 5 2 C4.01 2.495 4.01 2.495 3 3 C3 3.66 3 4.32 3 5 C2.01 5.495 2.01 5.495 1 6 C0.67 11.94 0.34 17.88 0 24 C-1.32 22.35 -2.64 20.7 -4 19 C-4.66 18.34 -5.32 17.68 -6 17 C-6 16.01 -6 15.02 -6 14 C-4.68 14 -3.36 14 -2 14 C-1.93941406 13.40832031 -1.87882812 12.81664062 -1.81640625 12.20703125 C-1.37987629 8.09021792 -0.91328654 4.04455467 0 0 Z " fill="#458EC9" transform="translate(66,16)"/>
<path d="M0 0 C1.48831242 0.00667405 2.97660807 0.01863442 4.46484375 0.03515625 C5.22345703 0.03966797 5.98207031 0.04417969 6.76367188 0.04882812 C8.64326246 0.06064945 10.52281274 0.07858547 12.40234375 0.09765625 C12.40234375 1.41765625 12.40234375 2.73765625 12.40234375 4.09765625 C10.13209407 4.17862949 7.861023 4.23683329 5.58984375 4.28515625 C3.69298828 4.33736328 3.69298828 4.33736328 1.7578125 4.390625 C-1.59765625 4.09765625 -1.59765625 4.09765625 -3.546875 2.5859375 C-3.89363281 2.09480469 -4.24039063 1.60367188 -4.59765625 1.09765625 C-3.59765625 0.09765625 -3.59765625 0.09765625 0 0 Z " fill="#F8FDFA" transform="translate(43.59765625,77.90234375)"/>
<path d="M0 0 C2.64 0 5.28 0 8 0 C8 2.97 8 5.94 8 9 C7.67 8.34 7.34 7.68 7 7 C6.34 6.67 5.68 6.34 5 6 C5.66 6 6.32 6 7 6 C6.67 5.01 6.34 4.02 6 3 C6.33 2.34 6.66 1.68 7 1 C5.02 1 3.04 1 1 1 C1.10699219 2.26714844 1.21398437 3.53429688 1.32421875 4.83984375 C1.44625723 6.53899491 1.56729762 8.23821796 1.6875 9.9375 C1.76033203 10.76830078 1.83316406 11.59910156 1.90820312 12.45507812 C2.31408355 18.59103517 1.34488969 23.32438883 -1 29 C-1.99 29 -2.98 29 -4 29 C-3.51917969 28.08089844 -3.03835937 27.16179688 -2.54296875 26.21484375 C-0.37006883 21.14474393 -0.4364696 16.00653624 -0.3125 10.5625 C-0.27833984 9.54478516 -0.24417969 8.52707031 -0.20898438 7.47851562 C-0.12706373 4.98578734 -0.05773351 2.49338598 0 0 Z " fill="#D7EBF5" transform="translate(84,30)"/>
<path d="M0 0 C2.06913193 2.23466248 3.017098 3.33317783 2.9375 6.4375 C1.81075754 9.51726273 0.16291432 11.55799996 -2 14 C-4.41685712 9.77050005 -5.34833144 6.87664009 -5 2 C-4.67 2.66 -4.34 3.32 -4 4 C-3.01 3.67 -2.02 3.34 -1 3 C-0.67 2.01 -0.34 1.02 0 0 Z " fill="#E9F1F5" transform="translate(22,58)"/>
<path d="M0 0 C0 0.99 0 1.98 0 3 C-3.68196566 3.83103 -7.18715455 4.18107734 -10.95703125 4.31640625 C-12.06884766 4.35830078 -13.18066406 4.40019531 -14.32617188 4.44335938 C-15.47666016 4.48267578 -16.62714844 4.52199219 -17.8125 4.5625 C-18.98232422 4.60568359 -20.15214844 4.64886719 -21.35742188 4.69335938 C-24.23817031 4.79918279 -27.11900123 4.90126825 -30 5 C-30.33 4.34 -30.66 3.68 -31 3 C-30.33468262 2.98018066 -29.66936523 2.96036133 -28.98388672 2.93994141 C-25.94721732 2.84423582 -22.91119322 2.73474192 -19.875 2.625 C-18.30492187 2.57859375 -18.30492187 2.57859375 -16.703125 2.53125 C-11.01443741 2.31522389 -5.39667203 0 0 0 Z " fill="#E5F5FA" transform="translate(74,121)"/>
<path d="M0 0 C0.66 0.33 1.32 0.66 2 1 C-0.48057628 3.48057628 -1.36192464 3.29019005 -4.7890625 3.4140625 C-5.73007812 3.45273438 -6.67109375 3.49140625 -7.640625 3.53125 C-8.62546875 3.5621875 -9.6103125 3.593125 -10.625 3.625 C-12.11386719 3.68300781 -12.11386719 3.68300781 -13.6328125 3.7421875 C-16.08835385 3.8366314 -18.5438841 3.92219875 -21 4 C-20.01 5.485 -20.01 5.485 -19 7 C-20.65 6.67 -22.3 6.34 -24 6 C-23.67 4.68 -23.34 3.36 -23 2 C-22.40985107 1.97494385 -21.81970215 1.9498877 -21.21166992 1.92407227 C-18.53673186 1.80799948 -15.8621362 1.68532428 -13.1875 1.5625 C-12.25873047 1.52318359 -11.32996094 1.48386719 -10.37304688 1.44335938 C-9.48037109 1.40146484 -8.58769531 1.35957031 -7.66796875 1.31640625 C-6.84578857 1.27974854 -6.0236084 1.24309082 -5.17651367 1.20532227 C-2.82094822 1.06572228 -2.82094822 1.06572228 0 0 Z " fill="#D9EBF3" transform="translate(61,75)"/>
<path d="M0 0 C0.99 0.99 1.98 1.98 3 3 C1.78070272 4.30098717 0.54907548 5.59042437 -0.6875 6.875 C-1.37199219 7.59429687 -2.05648437 8.31359375 -2.76171875 9.0546875 C-5.09591291 11.08335887 -7.08467634 12.02992733 -10 13 C-10 12.34 -10 11.68 -10 11 C-9.34 11 -8.68 11 -8 11 C-8 10.34 -8 9.68 -8 9 C-7.34 8.34 -6.68 7.68 -6 7 C-5.01 7 -4.02 7 -3 7 C-2.814375 6.1028125 -2.814375 6.1028125 -2.625 5.1875 C-2 3 -2 3 0 0 Z " fill="#2C567C" transform="translate(76,60)"/>
<path d="M0 0 C0 1.32 0 2.64 0 4 C-1.24735567 4.6509259 -2.49801832 5.29551669 -3.75 5.9375 C-4.44609375 6.29714844 -5.1421875 6.65679688 -5.859375 7.02734375 C-7.90224433 7.95558182 -9.81115376 8.53166578 -12 9 C-12 8.34 -12 7.68 -12 7 C-9.8828125 5.2734375 -9.8828125 5.2734375 -7.125 3.375 C-6.22007813 2.74335938 -5.31515625 2.11171875 -4.3828125 1.4609375 C-2 0 -2 0 0 0 Z " fill="#5694C8" transform="translate(39,15)"/>
<path d="M0 0 C1.85776765 3.13498292 2.20140476 5.37471432 2 9 C1.34 8.34 0.68 7.68 0 7 C-1.66342837 8.66342837 -1.36048097 10.7825709 -1.5625 13.0625 C-1.64628906 13.98160156 -1.73007813 14.90070312 -1.81640625 15.84765625 C-1.87699219 16.55792969 -1.93757813 17.26820312 -2 18 C-2.33 18 -2.66 18 -3 18 C-3 13.05 -3 8.1 -3 3 C-2.01 2.67 -1.02 2.34 0 2 C0 1.34 0 0.68 0 0 Z " fill="#226196" transform="translate(69,19)"/>
<path d="M0 0 C0.99 0 1.98 0 3 0 C3 0.66 3 1.32 3 2 C4.32 2.33 5.64 2.66 7 3 C4.69 4.98 2.38 6.96 0 9 C0 6.03 0 3.06 0 0 Z " fill="#416986" transform="translate(92,30)"/>
<path d="M0 0 C2.12508244 3.18762365 2.5020163 5.26512223 3 9 C2.01 9.495 2.01 9.495 1 10 C-1.0625 9.25 -1.0625 9.25 -3 8 C-3.33 7.01 -3.66 6.02 -4 5 C-3.34 5 -2.68 5 -2 5 C-1.34 3.35 -0.68 1.7 0 0 Z " fill="#1B517C" transform="translate(30,88)"/>
<path d="M0 0 C3.57104439 1.87949705 5.54744301 3.17053157 7 7 C5.68 7.33 4.36 7.66 3 8 C1.68 6.02 0.36 4.04 -1 2 C-0.67 1.34 -0.34 0.68 0 0 Z " fill="#29597E" transform="translate(96,8)"/>
<path d="M0 0 C0.66 0 1.32 0 2 0 C2.25 7.625 2.25 7.625 0 11 C0 10.01 0 9.02 0 8 C-0.66 8 -1.32 8 -2 8 C-2.20086443 4.28400809 -2.1519437 3.22791555 0 0 Z " fill="#2C5981" transform="translate(82,98)"/>
<path d="M0 0 C0.33 0 0.66 0 1 0 C1 4.29 1 8.58 1 13 C-1.08231683 10.39710397 -3.15099935 7.77350098 -5 5 C-3.68 5.33 -2.36 5.66 -1 6 C-0.67 4.02 -0.34 2.04 0 0 Z " fill="#548FC3" transform="translate(65,27)"/>
<path d="M0 0 C1.32 0.66 2.64 1.32 4 2 C4 3.32 4 4.64 4 6 C2 7.75 2 7.75 0 9 C-0.33 8.01 -0.66 7.02 -1 6 C-0.34 5.01 0.32 4.02 1 3 C0.67 2.01 0.34 1.02 0 0 Z " fill="#375F81" transform="translate(105,17)"/>
<path d="M0 0 C-1.65 1.32 -3.3 2.64 -5 4 C-7.91517292 2.92598892 -9.77810176 2.22189824 -12 0 C-3.42857143 -1.28571429 -3.42857143 -1.28571429 0 0 Z " fill="#D7EDF4" transform="translate(76,14)"/>
<path d="M0 0 C0.99 0 1.98 0 3 0 C3.66 0.66 4.32 1.32 5 2 C4.67 2.99 4.34 3.98 4 5 C3.34 5 2.68 5 2 5 C1.34 5.66 0.68 6.32 0 7 C-0.66 6.34 -1.32 5.68 -2 5 C-1.46428571 1.46428571 -1.46428571 1.46428571 0 0 Z " fill="#184F81" transform="translate(74,57)"/>
<path d="M0 0 C0.99 0.33 1.98 0.66 3 1 C2.360625 1.825 1.72125 2.65 1.0625 3.5 C-1.46413081 7.23191406 -1.69360228 10.55723303 -2 15 C-2.33 15 -2.66 15 -3 15 C-3 10.71 -3 6.42 -3 2 C-2.01 2 -1.02 2 0 2 C0 1.34 0 0.68 0 0 Z " fill="#5292C1" transform="translate(39,33)"/>
<path d="M0 0 C0.66 0.99 1.32 1.98 2 3 C0.68 3.33 -0.64 3.66 -2 4 C-2 4.66 -2 5.32 -2 6 C-3.29233607 7.37310707 -4.62437146 8.71034824 -6 10 C-6.99 9.67 -7.98 9.34 -9 9 C-6.03 6.03 -3.06 3.06 0 0 Z " fill="#DFEFF2" transform="translate(107,24)"/>
<path d="M0 0 C0.33 0 0.66 0 1 0 C1 2.31 1 4.62 1 7 C0.01 7.33 -0.98 7.66 -2 8 C-2.33 8.66 -2.66 9.32 -3 10 C-3 9.34 -3 8.68 -3 8 C-3.66 7.67 -4.32 7.34 -5 7 C-4.0409375 6.1028125 -4.0409375 6.1028125 -3.0625 5.1875 C-0.79689611 3.09189663 -0.79689611 3.09189663 0 0 Z " fill="#D6E5EC" transform="translate(79,60)"/>
<path d="M0 0 C0.66 0 1.32 0 2 0 C1.77169299 1.62818946 1.51656424 3.2526349 1.25 4.875 C1.11078125 5.77992187 0.9715625 6.68484375 0.828125 7.6171875 C0 10 0 10 -4 12 C-2.68 8.04 -1.36 4.08 0 0 Z " fill="#D3E4ED" transform="translate(84,48)"/>
<path d="M0 0 C5.39449293 -0.27429625 8.51925805 -0.36055646 13 3 C11.02 3.99 11.02 3.99 9 5 C8.62875 4.525625 8.2575 4.05125 7.875 3.5625 C5.37353038 1.47794198 3.18406582 1.35378509 0 1 C0 0.67 0 0.34 0 0 Z " fill="#D5EAF4" transform="translate(48,30)"/>
<path d="M0 0 C0.99 0.33 1.98 0.66 3 1 C1.8125 3 1.8125 3 0 5 C-2.6875 5.25 -2.6875 5.25 -5 5 C-3.35 3.35 -1.7 1.7 0 0 Z " fill="#E1EFF4" transform="translate(45,31)"/>
<path d="M0 0 C0.75 1.625 0.75 1.625 1 4 C-0.8125 7.25 -0.8125 7.25 -3 10 C-3.66 10 -4.32 10 -5 10 C-3.84414715 6.08788267 -2.64465038 3.1254959 0 0 Z " fill="#5F9AC6" transform="translate(26,24)"/>
<path d="M0 0 C2.05078125 0.03255208 4.1015625 0.06510417 6.15234375 0.09765625 C6.15234375 0.75765625 6.15234375 1.41765625 6.15234375 2.09765625 C6.81234375 2.42765625 7.47234375 2.75765625 8.15234375 3.09765625 C7.55421875 2.91203125 6.95609375 2.72640625 6.33984375 2.53515625 C3.98825613 1.87671938 3.98825613 1.87671938 1.15234375 3.09765625 C-1.03515625 2.16015625 -1.03515625 2.16015625 -2.84765625 1.09765625 C-1.84765625 0.09765625 -1.84765625 0.09765625 0 0 Z " fill="#18507E" transform="translate(38.84765625,59.90234375)"/>
<path d="M0 0 C-3.53832266 2.1229936 -6.921046 2.62231907 -11 3 C-11.66 2.67 -12.32 2.34 -13 2 C-8.50343896 -0.24828052 -4.92127034 -0.16682272 0 0 Z " fill="#1A4779" transform="translate(88,13)"/>
<path d="M0 0 C0.99 0.66 1.98 1.32 3 2 C2.34 2.66 1.68 3.32 1 4 C1.33 4.66 1.66 5.32 2 6 C0.68 6 -0.64 6 -2 6 C-2 5.34 -2 4.68 -2 4 C-2.66 3.67 -3.32 3.34 -4 3 C-2.68 2.01 -1.36 1.02 0 0 Z " fill="#E2ECEE" transform="translate(78,117)"/>
<path d="M0 0 C2.31 0.33 4.62 0.66 7 1 C6.67 2.32 6.34 3.64 6 5 C4.35 5 2.7 5 1 5 C1 3 1 3 2 2 C1.34 2 0.68 2 0 2 C0 1.34 0 0.68 0 0 Z " fill="#184E7F" transform="translate(72,112)"/>
<path d="M0 0 C0.66 0.66 1.32 1.32 2 2 C1.01 2.33 0.02 2.66 -1 3 C-1 3.66 -1 4.32 -1 5 C-0.34 5.33 0.32 5.66 1 6 C-0.65 6.66 -2.3 7.32 -4 8 C-4 7.34 -4 6.68 -4 6 C-3.34 6 -2.68 6 -2 6 C-2.33 4.68 -2.66 3.36 -3 2 C-2.01 1.34 -1.02 0.68 0 0 Z " fill="#3882C2" transform="translate(30,56)"/>
<path d="M0 0 C0.66 0 1.32 0 2 0 C2 1.98 2 3.96 2 6 C0.68 6 -0.64 6 -2 6 C-2.33 4.35 -2.66 2.7 -3 1 C-2.01 1.495 -2.01 1.495 -1 2 C-0.67 1.34 -0.34 0.68 0 0 Z " fill="#175081" transform="translate(35,72)"/>
<path d="M0 0 C0.99 0.33 1.98 0.66 3 1 C-2.75 6 -2.75 6 -5 6 C-5 5.34 -5 4.68 -5 4 C-4.01 4 -3.02 4 -2 4 C-2 3.01 -2 2.02 -2 1 C-1.34 0.67 -0.68 0.34 0 0 Z " fill="#DAE6EE" transform="translate(61,52)"/>
<path d="M0 0 C2 3.75 2 3.75 2 6 C2.66 6 3.32 6 4 6 C4 6.66 4 7.32 4 8 C3.01 8.33 2.02 8.66 1 9 C-1.125 3.375 -1.125 3.375 0 0 Z " fill="#E0EBF1" transform="translate(19,84)"/>
<path d="M0 0 C0.66 0 1.32 0 2 0 C2 0.66 2 1.32 2 2 C3.32 2.66 4.64 3.32 6 4 C6 4.33 6 4.66 6 5 C4.02 5 2.04 5 0 5 C-0.33 4.01 -0.66 3.02 -1 2 C-0.67 1.34 -0.34 0.68 0 0 Z " fill="#5E9AC9" transform="translate(40,54)"/>
<path d="M0 0 C2.4375 0.375 2.4375 0.375 5 1 C5.33 1.66 5.66 2.32 6 3 C5.01 4.485 5.01 4.485 4 6 C2.68 4.02 1.36 2.04 0 0 Z " fill="#F3F6F3" transform="translate(91,0)"/>
</svg>
